<?xml version="1.0" standalone="no"?>
<!DOCTYPE svg PUBLIC "-//W3C//DTD SVG 20010904//EN"
 "http://www.w3.org/TR/2001/REC-SVG-20010904/DTD/svg10.dtd">
<svg version="1.0" xmlns="http://www.w3.org/2000/svg"
 width="300.000000pt" height="424.000000pt" viewBox="0 0 300.000000 424.000000"
 preserveAspectRatio="xMidYMid meet">
<metadata>
Created by potrace 1.10, written by Peter Selinger 2001-2011
</metadata>
<g transform="translate(0.000000,424.000000) scale(0.100000,-0.100000)"
fill="#000000" stroke="none">
<path d="M1025 4115 c-22 -7 -71 -25 -110 -40 -50 -20 -89 -28 -138 -29 -67
-1 -69 0 -103 37 -19 20 -36 37 -39 37 -3 0 -5 -15 -5 -32 1 -82 82 -177 168
-198 26 -6 90 -14 142 -19 57 -5 109 -15 130 -26 19 -9 82 -64 140 -120 110
-106 196 -165 243 -165 31 0 36 -16 7 -25 -39 -12 -116 -83 -147 -136 -18 -30
-44 -99 -59 -154 -34 -129 -44 -147 -123 -226 -100 -99 -148 -206 -134 -296 5
-32 23 -47 23 -19 0 8 22 34 50 59 37 34 92 63 227 123 175 77 179 79 259 158
90 89 142 182 164 289 6 31 13 57 15 57 7 0 44 -71 70 -136 34 -84 65 -230 65
-304 0 -99 -11 -118 -118 -214 -132 -119 -178 -141 -312 -149 -58 -4 -142 -14
-187 -22 -93 -18 -319 -88 -375 -116 l-36 -19 -26 108 c-41 172 -36 249 30
475 44 146 44 213 2 236 -25 14 -29 14 -55 -5 -15 -11 -39 -42 -53 -69 -20
-42 -25 -67 -28 -170 -3 -66 1 -178 8 -249 16 -161 7 -173 -82 -104 -68 53
-125 73 -213 73 -63 0 -89 -5 -122 -23 -74 -39 -95 -98 -50 -140 29 -28 75
-28 150 -2 69 24 175 26 239 4 49 -16 114 -67 148 -114 l20 -28 -81 -49 c-231
-136 -426 -414 -476 -677 -20 -106 -13 -295 15 -382 29 -90 108 -234 169 -308
50 -60 53 -67 53 -119 0 -71 22 -101 74 -101 44 0 48 -19 9 -40 -121 -63 -234
-294 -232 -475 0 -108 15 -155 49 -159 21 -2 34 9 73 62 44 60 51 65 95 71
174 24 283 98 355 241 15 28 31 73 38 98 9 37 15 46 28 40 63 -26 179 -55 264
-65 313 -36 621 64 952 312 89 66 205 178 240 232 l18 28 25 -38 c14 -21 52
-69 84 -106 78 -92 92 -120 98 -202 5 -66 6 -70 31 -73 73 -9 170 207 186 416
10 139 -43 324 -124 431 l-26 34 21 66 c27 86 39 170 48 311 21 367 -120 848
-327 1116 -64 83 -202 210 -293 269 -94 61 -255 146 -361 190 -38 16 -75 35
-81 42 -7 8 -15 43 -19 79 -20 192 -216 390 -442 448 -73 19 -193 20 -248 1z
m219 -30 c38 -8 105 -32 150 -54 140 -68 268 -225 291 -356 3 -22 9 -51 12
-64 4 -17 2 -22 -6 -17 -6 4 -11 1 -11 -9 0 -11 28 -29 83 -53 268 -118 448
-229 568 -352 186 -189 305 -422 382 -750 l41 -175 1 -215 c0 -195 -2 -225
-25 -317 l-24 -101 -33 28 c-46 41 -120 82 -139 78 -10 -2 9 -21 56 -52 172
-118 279 -371 250 -593 -17 -128 -64 -264 -113 -325 -31 -39 -38 -26 -40 72
-2 69 -8 103 -21 125 l-17 30 5 -35 c5 -32 4 -34 -9 -15 -8 11 -48 62 -89 114
-94 118 -116 175 -123 324 -3 59 -9 107 -14 107 -11 0 -23 -66 -15 -85 9 -25
-33 -38 -151 -43 -127 -5 -178 5 -248 49 -39 25 -45 33 -44 61 1 18 4 44 8 57
l7 25 32 -35 c37 -39 46 -19 11 25 -41 53 -131 74 -175 41 -17 -13 -14 -14 44
-15 34 0 62 -4 62 -8 0 -24 -69 -107 -123 -148 -114 -86 -217 -124 -462 -169
-295 -55 -429 -119 -627 -304 -95 -88 -142 -121 -172 -121 -26 0 -46 30 -46
71 0 38 1 39 27 33 25 -6 21 0 -33 57 -235 249 -305 574 -185 869 98 240 258
424 463 531 245 127 659 207 937 180 147 -14 168 -14 155 -1 -10 10 -109 26
-209 34 -33 3 -62 5 -65 6 -3 0 9 7 27 16 17 9 73 51 125 95 143 122 231 158
388 159 102 1 90 18 -18 26 -62 5 -120 -6 -217 -40 -13 -5 -7 4 15 23 42 38
126 71 198 78 71 8 66 23 -8 23 -67 0 -143 -25 -193 -63 l-32 -24 4 78 c4 98
-12 191 -50 289 -51 134 -115 211 -174 210 -18 -1 -17 -3 8 -23 l27 -23 -20
-78 c-25 -97 -71 -184 -134 -253 -66 -72 -110 -102 -241 -158 -158 -68 -205
-92 -252 -131 l-41 -34 10 37 c19 70 60 138 118 193 77 74 104 120 130 220 52
197 123 285 274 336 25 9 46 19 46 24 0 4 -30 9 -68 12 -102 7 -164 43 -297
170 -144 136 -167 148 -314 160 -129 10 -184 30 -226 80 -33 39 -32 52 5 33
48 -25 113 -18 239 24 168 58 191 60 305 36z m-396 -909 c2 -28 -5 -76 -17
-115 -50 -165 -61 -229 -61 -340 0 -108 4 -130 54 -276 4 -11 -2 -4 -13 16
-71 127 -263 187 -410 129 -33 -13 -71 -20 -95 -18 -38 3 -41 5 -44 34 -2 25
3 36 25 51 62 43 152 55 225 29 21 -8 68 -32 106 -55 117 -70 151 -50 131 80
-6 38 -9 149 -7 247 3 160 5 181 25 219 23 42 37 53 63 50 11 -2 16 -17 18
-51z m1076 -1795 c-6 -61 -9 -71 -26 -71 -31 0 -93 -37 -129 -76 -19 -21 -61
-63 -93 -93 -68 -65 -95 -117 -96 -183 l0 -47 -57 -7 c-81 -10 -205 9 -372 56
-105 30 -160 40 -213 40 -87 0 -84 6 35 74 93 52 229 98 382 126 280 52 397
98 505 198 36 33 66 59 68 57 2 -2 0 -35 -4 -74z m75 -7 c89 -59 258 -72 389
-30 21 7 22 4 22 -37 0 -24 7 -67 16 -96 l15 -52 -30 -37 c-42 -52 -128 -135
-143 -138 -7 -1 -51 -10 -98 -20 -58 -12 -100 -15 -132 -10 l-48 7 15 29 c9
16 21 53 29 82 12 47 16 53 37 50 13 -2 69 -4 124 -5 76 -1 113 3 154 18 71
26 82 49 14 29 -63 -19 -185 -29 -256 -20 -51 7 -57 10 -57 31 0 31 -17 41
-25 15 -6 -20 -7 -20 -46 3 -35 19 -39 25 -35 51 4 16 6 57 6 92 0 35 2 64 5
64 3 0 23 -12 44 -26z m-89 -112 c0 -37 -32 -128 -62 -174 -51 -80 -123 -135
-215 -163 -21 -6 -23 -3 -23 26 0 39 29 101 69 149 l30 35 -6 -56 c-6 -66 12
-92 22 -32 11 65 34 124 61 160 46 61 124 95 124 55z m105 -152 c-8 -39 -53
-140 -63 -140 -4 0 -20 9 -37 20 -33 22 -45 25 -45 12 0 -5 16 -17 35 -28 l35
-18 -28 -29 c-15 -16 -48 -40 -74 -53 l-48 -24 -50 25 c-54 28 -69 16 -19 -14
34 -21 31 -26 -24 -36 -20 -4 -40 -11 -43 -16 -8 -13 43 -11 100 4 40 11 61
10 119 -1 52 -11 82 -12 121 -4 28 6 52 9 54 7 2 -2 -25 -20 -60 -41 -58 -34
-70 -37 -159 -41 -146 -7 -269 26 -376 99 -50 34 -58 22 -12 -17 84 -70 229
-111 363 -103 l81 6 -55 -25 c-122 -55 -336 -113 -360 -98 -4 3 -32 7 -61 11
-128 14 -289 85 -411 181 -67 53 -63 63 20 63 31 0 52 4 52 11 0 7 -28 10 -81
8 l-82 -3 -28 34 c-36 42 -51 32 -17 -12 l25 -32 -50 -23 -50 -24 -24 22 c-30
29 -43 16 -15 -14 l22 -23 -35 -17 c-44 -21 -89 -22 -105 -2 -7 9 -11 17 -9
18 2 2 18 11 34 22 17 10 57 44 90 75 33 32 71 63 85 70 45 24 164 17 280 -18
288 -85 453 -92 602 -25 94 42 187 153 222 265 5 16 10 15 46 -10 39 -25 41
-29 35 -62z m225 -154 c0 -2 -39 -33 -87 -68 l-88 -63 -107 3 c-60 2 -108 7
-108 11 0 4 11 13 24 19 13 6 41 25 61 44 38 33 39 33 124 30 59 -2 99 1 126
12 43 16 55 18 55 12z m-1260 -182 c94 -76 208 -139 288 -159 37 -9 76 -21 87
-25 19 -8 19 -9 -3 -9 -58 -2 -220 33 -279 59 -62 28 -253 138 -253 146 0 5
73 43 83 44 4 0 39 -25 77 -56z m-70 -69 c41 -24 71 -45 65 -45 -5 0 -54 21
-107 47 -79 37 -96 49 -86 60 9 11 14 11 32 -2 12 -8 55 -35 96 -60z m-108 2
c26 -15 67 -36 92 -47 l45 -19 -20 -60 c-29 -86 -89 -173 -151 -219 -62 -47
-110 -67 -197 -82 -73 -13 -155 -51 -165 -75 -12 -32 -5 -40 14 -15 29 38 33
19 4 -24 -36 -52 -47 -36 -52 72 -5 104 12 182 63 290 41 88 76 134 130 176
38 28 48 31 116 31 63 0 81 -4 121 -28z"/>
<path d="M1766 2187 c-22 -7 -41 -18 -44 -26 -3 -9 2 -11 14 -8 75 23 121 15
182 -30 40 -30 50 -26 21 11 -40 51 -110 72 -173 53z"/>
<path d="M1851 2004 c-19 -24 -21 -36 -16 -74 9 -60 27 -92 72 -129 l38 -31
-38 0 c-45 0 -111 -25 -102 -39 4 -7 15 -7 31 -1 35 14 124 12 165 -2 60 -20
117 -67 151 -123 53 -89 65 -60 12 31 -27 48 -75 91 -123 111 l-33 14 20 19
c28 27 35 53 23 96 -20 73 -83 137 -147 150 -26 5 -35 1 -53 -22z m59 -58 c-6
-18 -16 -26 -28 -24 -23 4 -27 42 -6 62 14 15 19 15 31 3 11 -10 11 -20 3 -41z
m101 -41 c33 -71 21 -115 -30 -115 -27 0 -85 40 -102 71 -9 18 -8 20 10 14 13
-4 27 1 42 16 17 17 20 29 16 61 l-5 40 25 -24 c14 -12 34 -41 44 -63z"/>
<path d="M1080 906 c0 -25 90 -114 166 -165 41 -28 105 -60 142 -72 77 -24
270 -40 258 -20 -4 6 -29 11 -56 11 -59 0 -170 22 -237 48 -69 26 -137 74
-210 149 -35 35 -63 57 -63 49z"/>
<path d="M376 3820 c-39 -46 -48 -91 -53 -261 -5 -136 -3 -166 16 -240 24 -97
80 -218 147 -322 51 -78 70 -78 30 1 -67 133 -93 484 -48 662 36 141 27 190
-32 190 -26 0 -41 -8 -60 -30z m84 -36 c0 -20 -10 -72 -22 -117 -35 -129 -31
-357 8 -532 11 -49 -28 36 -57 125 -26 79 -32 116 -37 218 -8 190 20 322 71
341 30 12 37 5 37 -35z"/>
<path d="M906 3719 c-15 -12 -42 -51 -60 -88 -61 -121 -57 -123 43 -32 74 68
91 88 91 112 0 24 -4 29 -24 29 -13 0 -35 -9 -50 -21z m44 -13 c0 -15 -19 -38
-64 -76 l-29 -25 18 35 c30 60 75 100 75 66z"/>
<path d="M644 3443 c-54 -58 -86 -266 -66 -435 12 -113 37 -208 53 -208 8 0 8
20 3 63 -4 34 -8 73 -9 87 -3 39 23 164 61 296 39 137 42 183 16 207 -24 22
-29 22 -58 -10z m46 -49 c0 -19 -16 -87 -35 -151 -20 -65 -39 -137 -42 -160
-6 -48 -23 -59 -23 -15 1 58 20 210 35 265 26 100 65 136 65 61z"/>
<path d="M1157 3445 c-36 -14 -179 -114 -192 -135 -9 -15 2 -12 69 14 34 13
87 27 118 31 84 10 133 56 96 93 -15 15 -43 14 -91 -3z m73 -24 c0 -17 -28
-31 -93 -45 -37 -7 -67 -12 -67 -10 0 2 24 17 53 34 50 28 107 40 107 21z"/>
<path d="M2420 3304 c0 -4 26 -34 58 -68 128 -138 321 -472 373 -643 6 -24 16
-43 21 -43 12 0 10 9 -17 105 -46 157 -141 337 -260 490 -84 108 -175 191
-175 159z"/>
<path d="M2676 3238 c5 -7 25 -35 46 -61 36 -47 115 -195 152 -287 10 -25 20
-40 23 -33 8 21 -45 176 -81 236 -47 77 -114 157 -133 157 -9 0 -11 -5 -7 -12z"/>
<path d="M162 3128 c-39 -39 8 -95 114 -134 40 -14 101 -43 135 -65 35 -21 65
-37 67 -35 6 6 -114 151 -151 182 -62 53 -140 77 -165 52z m109 -47 c24 -15
60 -45 78 -65 l35 -36 -90 36 c-81 32 -124 62 -124 85 0 19 58 8 101 -20z"/>
<path d="M399 2467 c-98 -84 -202 -254 -214 -349 -8 -62 10 -119 43 -137 52
-28 70 14 74 174 3 108 7 126 33 179 15 33 48 79 72 103 23 24 43 46 43 48 0
12 -27 3 -51 -18z m-118 -224 c-6 -21 -11 -78 -11 -128 0 -104 -10 -130 -37
-102 -31 31 -24 128 15 211 34 73 50 83 33 19z"/>
<path d="M127 1463 c-7 -14 11 -178 28 -244 26 -101 81 -202 152 -279 36 -39
71 -70 79 -70 22 0 18 8 -37 68 -104 117 -156 231 -189 413 -20 113 -24 127
-33 112z"/>
<path d="M90 1147 c0 -49 69 -195 109 -231 32 -29 37 -11 9 26 -32 43 -61 100
-82 166 -16 48 -36 70 -36 39z"/>
<path d="M2330 772 c-105 -108 -183 -163 -346 -245 -186 -94 -265 -117 -456
-133 -141 -11 -107 -27 45 -21 161 6 251 28 395 97 148 71 253 144 353 247 78
79 132 154 112 153 -5 -1 -51 -45 -103 -98z"/>
<path d="M2339 563 c-86 -88 -185 -152 -314 -202 -59 -22 -111 -41 -116 -41
-5 0 -9 -4 -9 -10 0 -17 41 -11 143 21 141 45 244 119 345 247 52 66 21 56
-49 -15z"/>
</g>
</svg>
